<?xml version="1.0" standalone="no"?>
<!DOCTYPE svg PUBLIC "-//W3C//DTD SVG 20010904//EN"
 "http://www.w3.org/TR/2001/REC-SVG-20010904/DTD/svg10.dtd">
<svg version="1.0" xmlns="http://www.w3.org/2000/svg"
 width="100.000000pt" height="100.000000pt" viewBox="0 0 100.000000 100.000000"
 preserveAspectRatio="xMidYMid meet">
<metadata>
Created by potrace 1.16, written by Peter Selinger 2001-2019
</metadata>
<g transform="translate(0.000000,100.000000) scale(0.100000,-0.100000)"
fill="#000000" stroke="none">
<path d="M0 827 c0 -32 13 -44 245 -228 135 -107 249 -195 253 -196 4 -2 117
84 252 190 235 185 245 194 248 230 l3 37 -500 0 -501 0 0 -33z"/>
<path d="M0 450 l0 -310 500 0 500 0 0 306 c0 242 -3 304 -12 297 -7 -4 -118
-90 -246 -190 -128 -101 -237 -183 -243 -183 -5 0 -76 53 -157 118 -81 65
-191 153 -244 195 l-98 77 0 -310z"/>
</g>
</svg>
