<?xml version="1.0" standalone="no"?>
<!DOCTYPE svg PUBLIC "-//W3C//DTD SVG 20010904//EN"
 "http://www.w3.org/TR/2001/REC-SVG-20010904/DTD/svg10.dtd">
<svg version="1.0" xmlns="http://www.w3.org/2000/svg"
 width="100.000000pt" height="100.000000pt" viewBox="0 0 100.000000 100.000000"
 preserveAspectRatio="xMidYMid meet">
<metadata>
Created by potrace 1.16, written by Peter Selinger 2001-2019
</metadata>
<g transform="translate(0.000000,100.000000) scale(0.100000,-0.100000)"
fill="#000000" stroke="none">
<path d="M465 913 c-104 -28 -125 -67 -123 -237 1 -108 4 -128 20 -143 10 -9
18 -23 18 -32 0 -9 9 -31 20 -49 28 -46 26 -97 -5 -126 -13 -12 -56 -35 -95
-50 -103 -41 -160 -96 -160 -156 0 -20 4 -20 380 -20 376 0 380 0 380 20 0 60
-57 115 -160 156 -39 15 -82 38 -95 50 -31 29 -33 80 -5 126 11 18 20 40 20
49 0 9 9 24 19 33 19 18 21 36 23 228 1 54 -20 94 -60 110 -15 7 -34 18 -43
25 -18 15 -102 25 -134 16z"/>
</g>
</svg>
