<?xml version="1.0" standalone="no"?>
<!DOCTYPE svg PUBLIC "-//W3C//DTD SVG 20010904//EN"
 "http://www.w3.org/TR/2001/REC-SVG-20010904/DTD/svg10.dtd">
<svg version="1.0" xmlns="http://www.w3.org/2000/svg"
 width="60.000000pt" height="60.000000pt" viewBox="0 0 60.000000 60.000000"
 preserveAspectRatio="xMidYMid meet">
<metadata>
Created by potrace 1.16, written by Peter Selinger 2001-2019
</metadata>
<g transform="translate(0.000000,60.000000) scale(0.100000,-0.100000)"
fill="#000000" stroke="none">
<path d="M174 590 c-11 -4 -33 -23 -48 -40 -24 -29 -27 -40 -24 -94 3 -55 5
-61 26 -64 21 -3 22 0 22 53 0 46 4 60 25 80 34 34 96 35 130 1 l24 -25 -34
-34 c-31 -31 -35 -41 -35 -88 0 -48 3 -55 40 -90 39 -37 39 -37 42 -125 2 -70
6 -89 20 -98 13 -8 23 -8 35 0 15 9 18 26 18 96 l0 84 43 41 c39 37 42 44 42
92 0 48 -4 57 -37 90 l-38 36 -5 -47 c-7 -54 -19 -72 -46 -66 -24 4 -32 48
-10 48 24 0 20 61 -7 101 -12 18 -34 39 -47 46 -28 14 -104 16 -136 3z"/>
<path d="M205 438 c-23 -27 -26 -39 -23 -82 3 -28 8 -58 11 -66 5 -10 -7 -38
-33 -78 -40 -63 -53 -123 -29 -137 14 -9 69 14 69 29 0 18 24 66 33 66 4 0 7
4 7 10 0 12 48 60 61 60 6 0 -3 11 -19 25 -16 13 -35 38 -42 54 -12 30 -10
101 4 134 13 28 -10 20 -39 -15z"/>
</g>
</svg>
