<?xml version="1.0" standalone="no"?>
<!DOCTYPE svg PUBLIC "-//W3C//DTD SVG 20010904//EN"
 "http://www.w3.org/TR/2001/REC-SVG-20010904/DTD/svg10.dtd">
<svg version="1.0" xmlns="http://www.w3.org/2000/svg"
 width="340.000000pt" height="270.000000pt" viewBox="0 0 340.000000 270.000000"
 preserveAspectRatio="xMidYMid meet">
<metadata>
Created by potrace 1.16, written by Peter Selinger 2001-2019
</metadata>
<g transform="translate(0.000000,270.000000) scale(0.100000,-0.100000)"
fill="#000000" stroke="none">
<path d="M1499 2221 c-31 -10 -80 -32 -110 -48 -30 -17 -80 -45 -111 -62 -32
-18 -75 -52 -96 -76 -28 -32 -42 -41 -50 -33 -7 7 -31 -17 -82 -86 -39 -53
-77 -96 -84 -96 -22 0 -51 39 -41 55 6 7 36 49 68 93 31 44 57 84 57 89 0 12
-45 33 -70 33 -36 0 -51 -13 -123 -114 -95 -130 -90 -119 -72 -163 13 -31 48
-62 200 -176 l185 -138 24 -77 c13 -42 27 -107 31 -143 l7 -66 -68 -22 c-85
-27 -92 -26 -116 4 -28 36 -70 55 -123 55 -78 0 -133 -47 -150 -130 -4 -19
-12 -41 -17 -47 -16 -20 -73 -15 -112 8 -45 26 -47 8 -3 -24 20 -16 52 -27 87
-30 38 -5 67 -16 98 -38 60 -43 122 -49 176 -17 45 26 76 78 76 125 0 30 4 33
43 43 23 6 55 15 71 20 42 14 43 14 50 -25 7 -36 26 -39 26 -4 0 10 4 19 9 19
19 0 42 -86 47 -183 l6 -102 -41 -39 -41 -40 -49 24 c-39 18 -61 22 -101 18
-59 -6 -93 -27 -134 -86 -49 -69 -37 -171 26 -228 44 -41 88 -56 144 -52 122
10 198 126 159 242 l-17 48 28 29 c30 31 44 30 45 -4 1 -16 4 -12 11 13 9 30
11 32 18 15 7 -18 8 -18 15 8 11 41 22 33 30 -23 7 -48 25 -61 25 -18 0 17 2
18 15 8 13 -10 15 -9 15 8 0 12 6 25 13 29 7 4 29 41 48 80 32 69 36 73 69 74
l35 1 -28 10 c-29 10 -31 20 -10 75 6 16 5 16 -10 5 -8 -8 -17 -26 -19 -40 -3
-29 -31 -40 -58 -22 -13 8 -13 13 3 41 17 30 15 49 -3 49 -6 0 -13 -18 -16
-40 -7 -43 -14 -48 -37 -26 -15 16 -13 105 4 138 14 27 12 28 -42 28 -28 0
-59 5 -70 11 -18 9 -19 12 -6 27 8 9 22 32 31 50 14 27 20 31 36 22 10 -5 39
-10 63 -10 55 0 104 31 132 83 11 20 23 37 27 37 4 0 44 -31 89 -70 44 -38 89
-70 100 -70 10 0 28 -14 41 -30 13 -18 28 -28 38 -25 14 4 47 -31 38 -41 -11
-11 -81 12 -103 33 -13 14 -30 23 -36 21 -7 -2 4 -15 25 -27 21 -13 42 -34 47
-47 10 -27 1 -113 -14 -131 -16 -21 -27 -15 -27 16 0 17 -5 33 -10 36 -16 10
-22 -19 -11 -48 9 -23 7 -28 -10 -38 -32 -16 -49 -4 -49 35 0 19 -4 37 -9 40
-15 10 -17 -3 -7 -49 9 -39 14 -45 36 -45 21 0 31 -12 65 -84 22 -45 45 -81
50 -79 6 2 16 -9 22 -24 l11 -28 1 28 c1 34 17 35 25 1 5 -20 10 -23 20 -15
11 9 15 6 21 -11 l8 -23 3 25 c14 85 16 91 28 87 6 -3 123 -88 258 -191 136
-102 258 -188 272 -192 51 -12 71 3 150 111 79 109 90 142 62 181 -8 10 -16
17 -19 14 -2 -3 -34 -47 -71 -97 -37 -51 -71 -93 -74 -93 -10 1 -52 37 -52 44
0 3 31 49 70 102 38 53 67 100 64 105 -12 20 -31 5 -76 -59 -27 -37 -58 -80
-71 -96 -23 -28 -24 -29 -50 -11 -15 9 -27 21 -27 26 0 5 31 52 70 106 38 53
67 100 64 105 -13 21 -34 1 -97 -87 -37 -52 -71 -95 -75 -95 -14 0 -52 31 -52
42 0 6 30 51 66 99 40 54 64 95 60 104 -3 8 -9 15 -13 15 -4 0 -39 -43 -76
-95 -38 -52 -74 -95 -81 -95 -7 0 -21 9 -31 20 -17 19 -17 21 10 62 15 24 45
67 67 95 36 47 45 83 21 83 -4 0 -39 -43 -76 -95 -38 -52 -74 -95 -81 -95 -13
0 -46 31 -46 43 0 4 30 47 66 97 59 80 75 121 47 120 -4 0 -39 -43 -76 -95
-38 -52 -74 -95 -82 -95 -7 0 -23 8 -34 18 l-22 17 59 81 c84 114 94 134 67
134 -8 0 -47 -43 -86 -96 -62 -83 -73 -94 -86 -82 -10 10 -12 26 -7 55 9 57
18 70 38 54 14 -12 16 -10 16 15 0 16 12 46 26 67 14 21 23 44 21 52 -3 7 1
35 8 61 8 27 19 75 25 106 l11 57 157 87 c229 126 333 186 329 190 -3 3 -43
-11 -212 -75 -131 -50 -246 -91 -255 -91 -6 0 -10 11 -10 25 0 17 13 36 37 58
41 35 262 234 278 250 18 17 -38 -15 -172 -100 -73 -45 -135 -83 -138 -83 -3
0 -5 16 -5 35 0 82 -62 213 -142 300 -128 140 -385 212 -559 156z m171 -454
c0 -11 -7 -28 -15 -37 -13 -14 -12 -16 12 -15 20 0 32 -9 46 -33 l19 -32 -39
-17 c-21 -9 -62 -18 -92 -21 -48 -4 -56 -2 -71 19 l-18 23 5 -25 c5 -29 -11
-46 -54 -55 -27 -5 -30 -3 -46 37 -19 48 -17 53 23 74 27 14 31 14 50 -5 19
-19 19 -19 14 8 -7 35 23 74 85 114 l46 29 18 -22 c9 -12 17 -30 17 -42z
m-267 -152 c9 -20 17 -44 17 -54 0 -24 -103 -121 -129 -121 -36 0 -56 70 -28
99 10 11 8 12 -9 7 -24 -7 -39 7 -49 45 -6 23 -2 28 32 42 21 9 63 16 94 16
54 1 56 0 72 -34z m-423 -400 c98 -51 92 -183 -10 -225 -24 -10 -40 -10 -70
-1 -112 33 -123 180 -16 227 40 17 61 17 96 -1z m183 -429 c18 -7 47 -30 65
-50 27 -32 32 -44 32 -90 0 -120 -117 -193 -219 -135 -50 28 -73 64 -79 119
-11 112 100 199 201 156z"/>
<path d="M1640 1298 c-24 -40 -30 -61 -26 -87 7 -47 21 -59 44 -38 17 15 19
15 34 0 45 -44 66 42 29 116 -35 68 -46 69 -81 9z"/>
</g>
</svg>
